<svg width="24" height="24" viewBox="0 0 24 24" fill="none" xmlns="http://www.w3.org/2000/svg">
<g id="interface-home-1--home-house-map-roof--Streamline-Core" clip-path="url(#clip0_98_613)">
<path id="Vector" d="M23.1429 11.8971C23.1445 11.6592 23.0965 11.4235 23.0021 11.2051C22.9076 10.9867 22.7688 10.7904 22.5943 10.6286L12 0.857147L1.40572 10.6286C1.23124 10.7904 1.09237 10.9867 0.997922 11.2051C0.903477 11.4235 0.855534 11.6592 0.857145 11.8971V21.4286C0.857145 21.8832 1.03776 22.3193 1.35925 22.6408C1.68074 22.9622 2.11677 23.1429 2.57143 23.1429H21.4286C21.8832 23.1429 22.3193 22.9622 22.6408 22.6408C22.9622 22.3193 23.1429 21.8832 23.1429 21.4286V11.8971Z" fill="#000001" stroke="#000001" stroke-linecap="round" stroke-linejoin="round"/>
</g>
<defs>
<clipPath id="clip0_98_613">
<rect width="24" height="24" fill="white"/>
</clipPath>
</defs>
</svg>
