<svg width="24" height="24" viewBox="0 0 24 24" fill="none" xmlns="http://www.w3.org/2000/svg">
<g clip-path="url(#clip0_408_1465)">
<path d="M23.1427 11.8969C23.1443 11.659 23.0964 11.4233 23.0019 11.2049C22.9075 10.9865 22.7686 10.7902 22.5941 10.6284L11.9998 0.856934L1.40554 10.6284C1.23107 10.7902 1.09219 10.9865 0.99775 11.2049C0.903306 11.4233 0.855363 11.659 0.856973 11.8969V21.4284C0.856973 21.883 1.03758 22.3191 1.35908 22.6405C1.68057 22.962 2.1166 23.1426 2.57126 23.1426H21.4284C21.8831 23.1426 22.3191 22.962 22.6406 22.6405C22.9621 22.3191 23.1427 21.883 23.1427 21.4284V11.8969Z" stroke="#000001" stroke-linecap="round" stroke-linejoin="round"/>
</g>
<defs>
<clipPath id="clip0_408_1465">
<rect width="24" height="24" fill="white"/>
</clipPath>
</defs>
</svg>
