<svg width="24" height="24" viewBox="0 0 24 24" fill="none" xmlns="http://www.w3.org/2000/svg">
<g id="food-kitchenware-chef-toque-hat--cook-gear-chef-cooking-nutrition-tools-clothes-hat-clothing-food--Streamline-Core" clip-path="url(#clip0_98_638)">
<g id="Group">
<g id="Group_2">
<path id="Vector" d="M4.28571 23.1429H19.7143" stroke="#000001" stroke-linecap="round" stroke-linejoin="round"/>
<path id="Vector_2" d="M23.0229 5.82857C22.8485 5.10964 22.4903 4.44835 21.9834 3.90956C21.4765 3.37077 20.8382 2.97297 20.1312 2.75517C19.4243 2.53737 18.6728 2.50705 17.9506 2.66718C17.2283 2.8273 16.5601 3.17238 16.0114 3.66857C15.7119 2.84522 15.1663 2.13396 14.4487 1.63136C13.7311 1.12876 12.8761 0.859161 12 0.859161C11.1239 0.859161 10.2689 1.12876 9.55131 1.63136C8.83367 2.13396 8.28807 2.84522 7.98857 3.66857C7.43988 3.17238 6.77166 2.8273 6.04943 2.66718C5.32719 2.50705 4.57574 2.53737 3.86875 2.75517C3.16177 2.97297 2.52352 3.37077 2.0166 3.90956C1.50968 4.44835 1.15149 5.10964 0.977143 5.82857C0.840932 6.38962 0.81902 6.97233 0.912711 7.54202C1.0064 8.1117 1.21378 8.65671 1.5225 9.14458C1.83121 9.63245 2.23495 10.0532 2.70967 10.3818C3.18439 10.7104 3.72038 10.94 4.28571 11.0571V17.1429C4.28571 17.5975 4.46633 18.0336 4.78782 18.355C5.10931 18.6765 5.54534 18.8571 6 18.8571H18C18.4547 18.8571 18.8907 18.6765 19.2122 18.355C19.5337 18.0336 19.7143 17.5975 19.7143 17.1429V11.0571C20.2796 10.94 20.8156 10.7104 21.2903 10.3818C21.765 10.0532 22.1688 9.63245 22.4775 9.14458C22.7862 8.65671 22.9936 8.1117 23.0873 7.54202C23.181 6.97233 23.1591 6.38962 23.0229 5.82857V5.82857Z" stroke="#000001" stroke-linecap="round" stroke-linejoin="round"/>
</g>
<path id="Vector_3" d="M4.28571 14.5714H19.7143" stroke="#000001" stroke-linecap="round" stroke-linejoin="round"/>
</g>
</g>
<defs>
<clipPath id="clip0_98_638">
<rect width="24" height="24" fill="white"/>
</clipPath>
</defs>
</svg>
