<svg width="24" height="24" viewBox="0 0 24 24" fill="none" xmlns="http://www.w3.org/2000/svg">
<g id="interface-dashboard-layout-3--app-application-dashboard-home-layout--Streamline-Core" clip-path="url(#clip0_98_615)">
<g id="Group">
<path id="Vector" d="M22.2857 11.1429H15.4286C14.9552 11.1429 14.5714 11.5266 14.5714 12V22.2857C14.5714 22.7591 14.9552 23.1429 15.4286 23.1429H22.2857C22.7591 23.1429 23.1429 22.7591 23.1429 22.2857V12C23.1429 11.5266 22.7591 11.1429 22.2857 11.1429Z" stroke="#000001" stroke-linecap="round" stroke-linejoin="round"/>
<path id="Vector_2" d="M22.2857 0.857147H15.4286C14.9552 0.857147 14.5714 1.2409 14.5714 1.71429V5.16C14.5714 5.63339 14.9552 6.01715 15.4286 6.01715H22.2857C22.7591 6.01715 23.1429 5.63339 23.1429 5.16V1.71429C23.1429 1.2409 22.7591 0.857147 22.2857 0.857147Z" stroke="#000001" stroke-linecap="round" stroke-linejoin="round"/>
<path id="Vector_3" d="M8.57143 0.857147H1.71429C1.2409 0.857147 0.857143 1.2409 0.857143 1.71429V12C0.857143 12.4734 1.2409 12.8571 1.71429 12.8571H8.57143C9.04482 12.8571 9.42857 12.4734 9.42857 12V1.71429C9.42857 1.2409 9.04482 0.857147 8.57143 0.857147Z" stroke="#000001" stroke-linecap="round" stroke-linejoin="round"/>
<path id="Vector_4" d="M8.57143 17.9829H1.71429C1.2409 17.9829 0.857143 18.3666 0.857143 18.84V22.2857C0.857143 22.7591 1.2409 23.1429 1.71429 23.1429H8.57143C9.04482 23.1429 9.42857 22.7591 9.42857 22.2857V18.84C9.42857 18.3666 9.04482 17.9829 8.57143 17.9829Z" stroke="#000001" stroke-linecap="round" stroke-linejoin="round"/>
</g>
</g>
<defs>
<clipPath id="clip0_98_615">
<rect width="24" height="24" fill="white"/>
</clipPath>
</defs>
</svg>
