<svg width="24" height="24" viewBox="0 0 24 24" fill="none" xmlns="http://www.w3.org/2000/svg">
<g id="interface-favorite-star--reward-rating-rate-social-star-media-favorite-like-stars--Streamline-Core" clip-path="url(#clip0_98_630)">
<path id="Vector" d="M12.84 1.86856L15.5657 7.37142C15.6277 7.51109 15.7252 7.63207 15.8485 7.72231C15.9719 7.81254 16.1167 7.86888 16.2686 7.8857L22.2857 8.77713C22.4599 8.79952 22.6242 8.87103 22.7593 8.98328C22.8944 9.09554 22.9948 9.24392 23.0487 9.4111C23.1026 9.57827 23.1079 9.75734 23.0639 9.92738C23.0198 10.0974 22.9283 10.2514 22.8 10.3714L18.4629 14.6743C18.3522 14.7777 18.2691 14.9071 18.2212 15.0509C18.1733 15.1946 18.1621 15.348 18.1886 15.4971L19.2343 21.5486C19.2646 21.7224 19.2454 21.9013 19.1791 22.0649C19.1127 22.2284 19.0017 22.37 18.8588 22.4736C18.7159 22.5772 18.5468 22.6387 18.3708 22.6509C18.1947 22.6631 18.0187 22.6257 17.8629 22.5428L12.4457 19.68C12.307 19.6119 12.1545 19.5765 12 19.5765C11.8455 19.5765 11.693 19.6119 11.5543 19.68L6.13714 22.5428C5.98129 22.6257 5.80532 22.6631 5.62925 22.6509C5.45317 22.6387 5.28406 22.5772 5.14117 22.4736C4.99827 22.37 4.88733 22.2284 4.82095 22.0649C4.75458 21.9013 4.73544 21.7224 4.76571 21.5486L5.81143 15.4286C5.83793 15.2794 5.82672 15.126 5.77882 14.9823C5.73091 14.8386 5.64784 14.7091 5.53714 14.6057L1.14857 10.3714C1.01874 10.2482 0.927429 10.0899 0.88571 9.91578C0.843992 9.74168 0.853652 9.55922 0.913521 9.3905C0.97339 9.22178 1.0809 9.07404 1.22302 8.96517C1.36515 8.85631 1.53579 8.79099 1.71429 8.77713L7.73143 7.8857C7.88331 7.86888 8.02813 7.81254 8.15145 7.72231C8.27478 7.63207 8.37229 7.51109 8.43429 7.37142L11.16 1.86856C11.2342 1.70829 11.3528 1.5726 11.5016 1.4775C11.6504 1.38241 11.8234 1.33188 12 1.33188C12.1766 1.33188 12.3496 1.38241 12.4984 1.4775C12.6472 1.5726 12.7658 1.70829 12.84 1.86856V1.86856Z" stroke="#000001" stroke-linecap="round" stroke-linejoin="round"/>
</g>
<defs>
<clipPath id="clip0_98_630">
<rect width="24" height="24" fill="white"/>
</clipPath>
</defs>
</svg>
