<svg width="24" height="24" viewBox="0 0 24 24" fill="none" xmlns="http://www.w3.org/2000/svg">
<g clip-path="url(#clip0_408_2749)">
<path d="M12 23.1426C18.1541 23.1426 23.1429 18.1538 23.1429 11.9998C23.1429 5.84576 18.1541 0.856934 12 0.856934C5.846 0.856934 0.857178 5.84576 0.857178 11.9998C0.857178 18.1538 5.846 23.1426 12 23.1426Z" stroke="#000001" stroke-linecap="round" stroke-linejoin="round"/>
<path d="M9.42871 9.42836C9.42871 8.91978 9.57952 8.42262 9.86207 7.99975C10.1446 7.57689 10.5462 7.2473 11.0161 7.05267C11.486 6.85805 12.003 6.80712 12.5018 6.90634C13.0006 7.00556 13.4588 7.25047 13.8184 7.61009C14.178 7.96971 14.4229 8.42789 14.5222 8.9267C14.6214 9.42551 14.5705 9.94254 14.3758 10.4124C14.1812 10.8823 13.8516 11.2839 13.4287 11.5664C13.0059 11.849 12.5087 11.9998 12.0001 11.9998V13.7141" stroke="#000001" stroke-linecap="round" stroke-linejoin="round"/>
<path d="M12.0001 17.9997C11.7634 17.9997 11.5715 17.8078 11.5715 17.5711C11.5715 17.3345 11.7634 17.1426 12.0001 17.1426" stroke="#000001" stroke-linecap="round" stroke-linejoin="round"/>
<path d="M12 17.9997C12.2367 17.9997 12.4286 17.8078 12.4286 17.5711C12.4286 17.3345 12.2367 17.1426 12 17.1426" stroke="#000001" stroke-linecap="round" stroke-linejoin="round"/>
</g>
<defs>
<clipPath id="clip0_408_2749">
<rect width="24" height="24" fill="white"/>
</clipPath>
</defs>
</svg>
