<svg width="24" height="24" viewBox="0 0 24 24" fill="none" xmlns="http://www.w3.org/2000/svg">
<g id="shopping-cart-3--shopping-cart-checkout--Streamline-Core" clip-path="url(#clip0_98_621)">
<g id="Group">
<path id="Vector" d="M6.42857 7.71429L6.85715 9.42858" stroke="#000001" stroke-linecap="round" stroke-linejoin="round"/>
<path id="Vector_2" d="M12.4286 7.71429L12 9.42858" stroke="#000001" stroke-linecap="round" stroke-linejoin="round"/>
<path id="Vector_3" d="M3.12 12.8571H17.1429L18.8571 4.28571H1.71428C1.58892 4.28617 1.46518 4.31412 1.35179 4.3676C1.23841 4.42107 1.13813 4.49877 1.05804 4.59521C0.977939 4.69166 0.919974 4.80449 0.888225 4.92577C0.856476 5.04705 0.851717 5.17382 0.874284 5.29713L2.28 12.1543C2.31279 12.3525 2.41557 12.5325 2.56969 12.6614C2.72381 12.7904 2.91906 12.8598 3.12 12.8571V12.8571Z" stroke="#000001" stroke-linecap="round" stroke-linejoin="round"/>
<path id="Vector_4" d="M18.8571 4.28572L19.5771 1.54286C19.6167 1.34926 19.7219 1.17525 19.8749 1.05029C20.028 0.925339 20.2195 0.857107 20.4171 0.857147H23.1429" stroke="#000001" stroke-linecap="round" stroke-linejoin="round"/>
<path id="Vector_5" d="M17.1429 12.8571L16.4229 16.4571C16.3833 16.6508 16.2781 16.8248 16.1251 16.9497C15.972 17.0747 15.7805 17.1429 15.5829 17.1429H5.14285" stroke="#000001" stroke-linecap="round" stroke-linejoin="round"/>
<path id="Vector_6" d="M6 23.1429C6.47338 23.1429 6.85714 22.7591 6.85714 22.2857C6.85714 21.8123 6.47338 21.4286 6 21.4286C5.52661 21.4286 5.14285 21.8123 5.14285 22.2857C5.14285 22.7591 5.52661 23.1429 6 23.1429Z" stroke="#000001" stroke-linecap="round" stroke-linejoin="round"/>
<path id="Vector_7" d="M14.5714 23.1429C15.0448 23.1429 15.4286 22.7591 15.4286 22.2857C15.4286 21.8123 15.0448 21.4286 14.5714 21.4286C14.098 21.4286 13.7143 21.8123 13.7143 22.2857C13.7143 22.7591 14.098 23.1429 14.5714 23.1429Z" stroke="#000001" stroke-linecap="round" stroke-linejoin="round"/>
</g>
</g>
<defs>
<clipPath id="clip0_98_621">
<rect width="24" height="24" fill="white"/>
</clipPath>
</defs>
</svg>
