<svg width="24" height="24" viewBox="0 0 24 24" fill="none" xmlns="http://www.w3.org/2000/svg">
<g clip-path="url(#clip0_408_2769)">
<path d="M12.8572 15.4285L7.71436 16.3543L8.5715 11.1428L18.3944 1.35425C18.5537 1.19357 18.7433 1.06604 18.9522 0.979008C19.1611 0.891976 19.3852 0.847168 19.6115 0.847168C19.8378 0.847168 20.0619 0.891976 20.2708 0.979008C20.4797 1.06604 20.6693 1.19357 20.8286 1.35425L22.6458 3.17139C22.8065 3.33076 22.934 3.52036 23.021 3.72926C23.1081 3.93816 23.1529 4.16223 23.1529 4.38854C23.1529 4.61484 23.1081 4.83891 23.021 5.04781C22.934 5.25671 22.8065 5.44631 22.6458 5.60568L12.8572 15.4285Z" stroke="#000001" stroke-linecap="round" stroke-linejoin="round"/>
<path d="M20.5715 16.2859V21.4287C20.5715 21.8834 20.3909 22.3194 20.0694 22.6409C19.7479 22.9624 19.3118 23.143 18.8572 23.143H2.57146C2.11681 23.143 1.68077 22.9624 1.35928 22.6409C1.03779 22.3194 0.857178 21.8834 0.857178 21.4287V5.143C0.857178 4.68834 1.03779 4.2523 1.35928 3.93081C1.68077 3.60932 2.11681 3.42871 2.57146 3.42871H7.71432" stroke="#000001" stroke-linecap="round" stroke-linejoin="round"/>
</g>
<defs>
<clipPath id="clip0_408_2769">
<rect width="24" height="24" fill="white"/>
</clipPath>
</defs>
</svg>
